<?xml version="1.0" encoding="UTF-8" standalone="no"?>
<!-- Created with Inkscape (http://www.inkscape.org/) -->

<svg
   xmlns:dc="http://purl.org/dc/elements/1.1/"
   xmlns:cc="http://creativecommons.org/ns#"
   xmlns:rdf="http://www.w3.org/1999/02/22-rdf-syntax-ns#"
   xmlns:svg="http://www.w3.org/2000/svg"
   xmlns="http://www.w3.org/2000/svg"
   xmlns:sodipodi="http://sodipodi.sourceforge.net/DTD/sodipodi-0.dtd"
   xmlns:inkscape="http://www.inkscape.org/namespaces/inkscape"
   width="210mm"
   height="297mm"
   viewBox="0 0 210 297"
   version="1.1"
   id="svg8"
   inkscape:version="0.92.3 (2405546, 2018-03-11)"
   sodipodi:docname="fullscreen.svg">
  <defs
     id="defs2" />
  <sodipodi:namedview
     id="base"
     pagecolor="#ffffff"
     bordercolor="#666666"
     borderopacity="1.0"
     inkscape:pageopacity="0.0"
     inkscape:pageshadow="2"
     inkscape:zoom="1.4"
     inkscape:cx="263.31647"
     inkscape:cy="421.78379"
     inkscape:document-units="mm"
     inkscape:current-layer="layer1"
     showgrid="false"
     inkscape:window-width="1920"
     inkscape:window-height="1017"
     inkscape:window-x="-8"
     inkscape:window-y="-8"
     inkscape:window-maximized="1" />
  <metadata
     id="metadata5">
    <rdf:RDF>
      <cc:Work
         rdf:about="">
        <dc:format>image/svg+xml</dc:format>
        <dc:type
           rdf:resource="http://purl.org/dc/dcmitype/StillImage" />
        <dc:title></dc:title>
      </cc:Work>
    </rdf:RDF>
  </metadata>
  <g
     inkscape:label="Layer 1"
     inkscape:groupmode="layer"
     id="layer1">
    <path
       style="fill:#000000;stroke-width:0.28222221"
       d=""
       id="path828"
       inkscape:connector-curvature="0" />
    <path
       style="fill:#ff0000;fill-opacity:1;stroke:#004d00;stroke-width:0.50507629;stroke-opacity:1"
       d=""
       id="path836"
       inkscape:connector-curvature="0"
       transform="scale(0.26458333)" />
    <rect
       style="fill:#0c0000;fill-opacity:1;stroke:none;stroke-width:1.34590077;stroke-miterlimit:4;stroke-dasharray:none;stroke-opacity:1"
       id="rect858"
       width="140.73015"
       height="69.101906"
       x="31.617247"
       y="97.020447" />
    <g
       id="g866"
       inkscape:export-xdpi="97.830002"
       inkscape:export-ydpi="97.830002"
       inkscape:export-filename="C:\Users\ozanc\Documents\repo\ozplayer\src\mobile\res\img\fullscreen.png">
      <path
         inkscape:connector-curvature="0"
         id="path834"
         d="m 115.11382,222.91755 c -0.0347,-0.0562 -0.17904,-0.10218 -0.32069,-0.10218 -0.37173,0 -0.87447,-0.56013 -1.02472,-1.1417 -0.1806,-0.69902 -0.1806,-23.77569 0,-24.47469 0.15025,-0.58159 0.65299,-1.14172 1.02472,-1.14172 0.14165,0 0.28573,-0.0456 0.32018,-0.10136 0.0403,-0.0652 1.72297,-0.10135 4.71562,-0.10135 4.17833,0 4.69001,0.0177 5.01597,0.17309 0.33666,0.16055 0.36079,0.20226 0.33285,0.57522 -0.0243,0.32379 -0.0894,0.43671 -0.33421,0.57967 -0.27726,0.16189 -0.71653,0.1782 -4.98096,0.18495 -4.16684,0.007 -4.68361,0.0249 -4.73842,0.16774 -0.0804,0.20955 -0.0804,23.59265 0,23.80219 0.0556,0.14495 1.21705,0.16032 12.1121,0.16032 h 12.05058 v -4.65002 c 0,-5.0051 0.0271,-5.28818 0.51783,-5.41652 0.36656,-0.0959 0.79981,0.035 0.79981,0.24166 0,0.10123 0.0456,0.21224 0.10135,0.2467 0.0652,0.0403 0.10136,1.73901 0.10136,4.76375 0,3.02475 -0.0362,4.72344 -0.10136,4.76376 -0.0558,0.0344 -0.10135,0.20202 -0.10135,0.37239 0,0.3741 -0.55572,0.93341 -1.04754,1.0543 -0.50043,0.12301 -24.36774,0.16577 -24.44312,0.0438 z"
         style="fill:#ffffff;fill-opacity:1;stroke:#ffffff;stroke-width:1.20000005;stroke-miterlimit:4;stroke-dasharray:none;stroke-opacity:1" />
      <path
         inkscape:connector-curvature="0"
         id="path838"
         d="m 121.5034,215.81495 c -0.29522,-0.14284 -0.45033,-0.57316 -0.33136,-0.91928 0.0425,-0.12356 4.82974,-4.98446 10.63837,-10.80198 6.2674,-6.27703 10.52667,-10.63309 10.47637,-10.71447 -0.0595,-0.0962 -1.23025,-0.13713 -3.9269,-0.13713 -3.24836,0 -3.90198,-0.0299 -4.22932,-0.19315 -0.69431,-0.34637 -0.68457,-1.24647 0.0162,-1.49988 0.61898,-0.22382 10.22825,-0.21061 10.76434,0.0148 0.74075,0.31147 0.74385,0.33614 0.74385,5.91007 0,4.28719 -0.0286,5.1208 -0.18689,5.43801 -0.32423,0.64995 -1.14431,0.64933 -1.46881,-9.2e-4 -0.15468,-0.31005 -0.18632,-1.02806 -0.18632,-4.22674 0,-3.11628 -0.0316,-3.86538 -0.16533,-3.91669 -0.10152,-0.039 -4.24468,4.01441 -10.73608,10.50341 -5.8139,5.81177 -10.62558,10.56686 -10.6926,10.56686 -0.067,0 -0.19544,0.0238 -0.28539,0.0532 -0.09,0.0292 -0.28352,-0.005 -0.43016,-0.0758 z"
         style="fill:#ffffff;fill-opacity:1;stroke:#ffffff;stroke-width:1.22500002;stroke-miterlimit:4;stroke-dasharray:none;stroke-opacity:1" />
    </g>
    <g
       id="g870"
       inkscape:export-xdpi="97.830002"
       inkscape:export-ydpi="97.830002"
       inkscape:export-filename="C:\Users\ozanc\Documents\repo\ozplayer\src\mobile\res\img\windowed.png">
      <path
         style="fill:#ffffff;fill-opacity:1;stroke:#ffffff;stroke-width:1.20000005;stroke-miterlimit:4;stroke-dasharray:none;stroke-opacity:1"
         d="m 56.945385,221.31393 c -0.0347,-0.0562 -0.17904,-0.10218 -0.32069,-0.10218 -0.37173,0 -0.87447,-0.56013 -1.02472,-1.1417 -0.1806,-0.69902 -0.1806,-23.77569 0,-24.47469 0.15025,-0.58159 0.65299,-1.14172 1.02472,-1.14172 0.14165,0 0.28573,-0.0456 0.32018,-0.10136 0.0403,-0.0652 1.72297,-0.10135 4.71562,-0.10135 4.17833,0 4.69001,0.0177 5.01597,0.17309 0.33666,0.16055 0.36079,0.20226 0.33285,0.57522 -0.0243,0.32379 -0.0894,0.43671 -0.33421,0.57967 -0.27726,0.16189 -0.71653,0.1782 -4.98096,0.18495 -4.16684,0.007 -4.68361,0.0249 -4.73842,0.16774 -0.0804,0.20955 -0.0804,23.59265 0,23.80219 0.0556,0.14495 1.21705,0.16032 12.1121,0.16032 h 12.05058 v -4.65002 c 0,-5.0051 0.0271,-5.28818 0.51783,-5.41652 0.36656,-0.0959 0.79981,0.035 0.79981,0.24166 0,0.10123 0.0456,0.21224 0.10135,0.2467 0.0652,0.0403 0.10136,1.73901 0.10136,4.76375 0,3.02475 -0.0362,4.72344 -0.10136,4.76376 -0.0558,0.0344 -0.10135,0.20202 -0.10135,0.37239 0,0.3741 -0.55572,0.93341 -1.04754,1.0543 -0.50043,0.12301 -24.36774,0.16577 -24.44312,0.0438 z"
         id="path846"
         inkscape:connector-curvature="0" />
      <path
         style="fill:#ffffff;fill-opacity:1;stroke:#ffffff;stroke-width:1.22500002;stroke-miterlimit:4;stroke-dasharray:none;stroke-opacity:1"
         d="m 87.395235,190.1629 c -0.14284,-0.29522 -0.57316,-0.45033 -0.91928,-0.33136 -0.12356,0.0425 -4.98446,4.82974 -10.80198,10.63837 -6.27703,6.2674 -10.63309,10.52667 -10.71447,10.47637 -0.0962,-0.0595 -0.13713,-1.23025 -0.13713,-3.9269 0,-3.24836 -0.0299,-3.90198 -0.19315,-4.22932 -0.34637,-0.69431 -1.24647,-0.68457 -1.49988,0.0162 -0.22382,0.61898 -0.21061,10.22825 0.0148,10.76434 0.31147,0.74075 0.33614,0.74385 5.91007,0.74385 4.28719,0 5.1208,-0.0286 5.43801,-0.18689 0.64995,-0.32423 0.64933,-1.14431 -9.2e-4,-1.46881 -0.31005,-0.15468 -1.02806,-0.18632 -4.22674,-0.18632 -3.11628,0 -3.86538,-0.0316 -3.91669,-0.16533 -0.039,-0.10152 4.01441,-4.24468 10.50341,-10.73608 5.81177,-5.8139 10.56686,-10.62558 10.56686,-10.6926 0,-0.067 0.0238,-0.19544 0.0532,-0.28539 0.0292,-0.09 -0.005,-0.28352 -0.0758,-0.43016 z"
         id="path848"
         inkscape:connector-curvature="0" />
    </g>
  </g>
</svg>
